
<svg version="1.1" xmlns="http://www.w3.org/2000/svg" xmlns:xlink="http://www.w3.org/1999/xlink" x="0px" y="0px"
	 viewBox="0 0 1291.44 726.72" style="enable-background:new 0 0 1291.44 726.72;" xml:space="preserve">
<g id="1">
	<polygon class="st0" points="211.04,544.89 211.04,526.98 175.25,526.98 175.25,548.67 152.51,548.67 152.51,594.56 198.41,594.56 
		198.41,630.35 152.51,630.35 152.51,676.46 220.3,676.46 220.3,640.56 211.04,640.56 211.04,628.67 220.3,628.67 220.3,544.88 	"/>
</g>
<g id="2">
	<polygon class="st0" points="224.64,676.54 224.64,639.56 237.19,639.49 237.19,628.46 224.56,628.46 224.56,546.04 233.72,546.04 
		233.72,525.83 271.3,525.83 271.3,546.35 295.3,546.35 295.3,596.25 249.19,596.25 249.19,629.72 295.3,629.72 295.3,676.46 	"/>
</g>
<g id="3">
	<polygon class="st0" points="359.67,544.89 359.67,526.98 323.88,526.98 323.88,548.67 299.3,548.67 299.3,594.56 346.54,594.06 
		346.54,629.85 300.09,630.35 300.09,676.46 368.93,676.46 368.93,638.88 359.67,638.88 359.67,628.67 368.93,628.67 368.93,544.88 
			"/>
</g>
<g id="4">
	<polygon class="st0" points="374.04,675.46 374.04,639.46 386.67,639.46 386.67,627.46 374.04,627.46 374.04,545.04 383.19,545.04 
		383.19,524.83 420.77,524.83 420.77,545.35 444.77,545.35 444.77,595.25 398.67,595.25 398.67,628.72 444.77,628.72 444.77,675.46 
			"/>
</g>
<g id="5">
	<polygon class="st0" points="507.56,543.1 507.56,525.19 471.77,525.19 471.77,546.88 449.04,546.88 449.04,592.77 494.93,592.77 
		494.93,628.56 448.3,628.56 448.3,674.67 516.83,674.67 516.83,637.72 507.56,637.72 507.56,626.88 516.83,626.88 516.83,543.09 	
		"/>
</g>
<g id="6">
	<polygon class="st0" points="522.77,675.46 522.77,637.72 535.4,637.72 535.4,625.72 522.77,625.72 522.77,545.04 531.93,545.04 
		531.93,524.83 569.51,524.83 569.51,545.35 593.51,545.35 593.51,592.88 547.4,592.88 547.4,628.72 593.51,628.72 593.51,675.46 	
		"/>
</g>
<g id="7">
	<polygon class="st0" points="658.62,543.83 658.62,524.61 620.19,524.61 620.19,546.3 597.46,546.3 597.46,592.19 643.35,592.19 
		643.35,627.98 597.46,627.98 597.46,674.09 667.25,674.09 667.25,636.88 655.98,636.88 655.98,626.3 667.25,626.3 667.25,543.82 	
		"/>
</g>
<g id="8">
	<polygon class="st0" points="672.01,674.09 672.01,636.61 684.64,636.61 684.64,624.61 672.01,624.61 672.01,543.35 681.17,543.35 
		681.17,523.61 718.75,523.61 718.75,544.14 742.75,544.14 742.75,592.4 696.64,592.4 696.64,627.04 742.75,627.04 742.75,674.09 	
		"/>
</g>
<g id="9">
	<polygon class="st0" points="807.14,541.52 807.14,523.61 770.51,523.61 770.51,545.3 745.93,545.3 745.93,591.19 791.83,591.19 
		791.83,626.98 745.93,626.98 745.93,673.09 817.51,673.09 817.51,636.04 804.46,636.04 804.46,623.3 817.51,623.3 817.51,541.51 	
		"/>
</g>
<g id="10">
	<polygon class="st0" points="821.3,672.46 821.3,636.46 833.93,636.46 833.93,624.46 821.3,624.46 821.3,542.04 830.46,542.04 
		830.46,521.83 868.04,521.83 868.04,542.35 892.04,542.35 892.04,592.25 845.93,592.25 845.93,625.72 892.04,625.72 892.04,672.46 
			"/>
</g>
<g id="11">
	<polygon class="st0" points="955.72,541.31 955.72,521.83 919.93,521.83 919.93,543.51 895.04,543.51 895.04,590.88 943.09,590.88 
		943.09,625.19 896.14,625.19 896.14,672.46 964.98,672.46 964.98,634.88 952.72,634.88 952.72,623.51 964.98,623.51 964.98,541.3 	
		"/>
</g>
<g id="12">
	<polygon class="st0" points="971.3,671.22 971.3,635.22 983.06,635.22 983.06,623.22 970.43,623.22 970.43,540.8 978.4,540.8 
		978.4,520.59 1014.88,520.59 1014.88,541.11 1041.17,541.11 1041.17,591.01 995.06,591.01 995.06,624.48 1041.17,624.48 
		1041.17,671.22 	"/>
</g>
<g id="13">
	<polygon class="st0" points="1104.14,538.58 1104.14,520.67 1068.35,520.67 1068.35,542.35 1043.39,542.35 1043.39,589.93 
		1091.51,589.93 1091.51,624.04 1045.61,624.04 1045.61,671.22 1113.4,671.22 1113.4,634.25 1101.4,634.25 1101.4,622.35 
		1113.4,622.35 1113.4,538.56 	"/>
</g>
<g id="14">
	<polygon class="st0" points="1119.88,671.09 1119.88,634.14 1133.25,634.14 1133.25,622.14 1119.77,622.14 1119.77,539.72 
		1127.14,539.72 1127.14,520.67 1165.51,520.67 1165.51,540.04 1189.51,540.04 1189.51,589.93 1143.4,589.93 1143.4,623.4 
		1190.09,623.4 1190.09,671.09 	"/>
</g>
<g id="15">
	<polygon class="st0" points="444.72,59.27 444.72,95.27 432.09,95.27 432.09,107.27 444.72,107.27 444.72,184.96 435.56,184.96 
		435.56,205.17 397.98,204.54 397.98,189.38 375.41,189.06 375.41,139.17 420.09,139.48 420.09,104.12 373.98,104.12 373.98,59.27 	
		"/>
</g>
<g id="16">
	<polygon class="st0" points="458.19,188.5 458.19,205.72 493.98,205.72 493.98,185.35 517.72,184.93 517.72,137.54 470.83,137.44 
		470.83,101.98 517.72,101.98 517.72,58.72 447.62,58.72 447.62,95.27 461.77,95.43 461.64,106.56 447.62,106.56 448.2,188.52 	"/>
</g>
<g id="17">
	<polygon class="st0" points="591.22,58.17 591.22,94.17 578.59,94.17 578.59,106.17 591.22,106.17 591.22,185.25 582.06,185.25 
		582.06,204.06 544.48,203.43 544.48,183.87 521.9,183.56 521.9,138.06 567.56,138.38 567.56,103.01 521.62,103.01 521.62,58.17 	
		"/>
</g>
<g id="18">
	<polygon class="st0" points="604.56,186.35 604.56,203.56 640.35,203.56 640.35,183.19 665.85,182.77 665.85,136.88 617.19,136.77 
		617.19,99.83 664.09,99.83 664.09,58.17 593.98,58.17 593.98,94.53 606.88,94.69 606.74,106.06 595.15,106.22 594.72,186.36 	"/>
</g>
<g id="19">
	<polygon class="st0" points="738.35,57.06 738.35,93.06 725.72,93.06 725.72,105.06 738.35,105.06 738.35,182.75 729.19,182.75 
		729.19,202.96 691.61,202.33 691.61,183.37 669.04,183.06 669.04,136.96 713.72,137.27 713.72,100.3 667.62,100.3 667.62,57.06 	
		"/>
</g>
<g id="20">
	<polygon class="st0" points="752.51,183.56 752.51,202.96 789.09,202.96 789.09,183.14 812.04,182.72 812.04,136.83 765.14,136.72 
		765.14,99.77 811.04,99.77 811.04,56.51 741.93,56.51 741.93,93.46 754.83,93.62 754.72,104.64 741.64,104.32 742.22,183.41 	"/>
</g>
<g id="21">
	<polygon class="st0" points="885.51,55.67 885.51,91.67 872.88,91.67 872.88,103.67 885.51,103.67 885.51,181.35 876.35,181.35 
		876.35,201.56 838.77,200.93 838.77,183.52 816.19,183.2 816.19,135.56 860.88,135.88 860.88,100.51 814.77,100.51 814.77,55.67 	
		"/>
</g>
<g id="22">
	<polygon class="st0" points="899.35,182.13 899.35,202.67 935.14,202.67 935.14,182.3 958.88,181.88 958.88,135.98 911.98,135.88 
		911.98,98.93 956.04,98.93 956.04,55.67 888.77,55.67 888.77,91.3 901.67,91.46 901.52,103.93 889.93,103.77 890.09,182.15 	"/>
</g>
<g id="23">
	<polygon class="st0" points="1032.04,55.67 1032.04,91.67 1019.4,91.67 1019.4,103.67 1032.04,103.67 1032.04,181.35 
		1022.88,181.35 1022.88,201.56 985.3,200.93 985.3,182.97 962.72,182.65 962.72,135.56 1007.4,135.88 1007.4,99.19 961.3,99.19 
		961.3,55.67 	"/>
</g>
<g id="24">
	<polygon class="st0" points="1046.09,181.72 1046.09,200.77 1081.88,200.77 1081.88,180.4 1105.61,179.98 1105.61,134.09 
		1058.72,133.98 1058.72,97.04 1103.77,97.04 1103.77,55.67 1036.35,54.98 1036.35,91.85 1048.4,92 1048.25,104.47 1036.66,104.31 
		1036.82,181.73 	"/>
</g>
<g id="25">
	<polygon class="st0" points="1180.67,54.67 1180.67,90.67 1168.04,90.67 1168.04,102.67 1180.67,102.67 1180.67,180.35 
		1171.51,180.35 1171.51,200.56 1133.93,199.93 1133.93,180.48 1111.35,180.17 1111.35,134.56 1156.04,134.88 1156.04,97.62 
		1109.93,97.62 1109.93,54.67 	"/>
</g>
<g id="26">
	<polygon class="st0" points="1194.25,181.14 1194.25,200.56 1230.03,200.56 1230.03,180.19 1253.77,179.77 1253.77,133.88 
		1206.88,133.77 1206.88,96.83 1250.93,96.83 1250.93,53.56 1183.67,53.56 1183.67,90.51 1196.57,90.67 1196.41,103.14 
		1184.82,102.98 1184.98,181.15 	"/>
</g>
</svg>
