<?xml version="1.0" encoding="utf-8"?>
<!-- Generator: Adobe Illustrator 25.4.1, SVG Export Plug-In . SVG Version: 6.00 Build 0)  -->
<svg version="1.1" id="Layer_1" xmlns="http://www.w3.org/2000/svg" xmlns:xlink="http://www.w3.org/1999/xlink" x="0px" y="0px"
	 viewBox="0 0 121 121" style="enable-background:new 0 0 121 121;" xml:space="preserve">
<style type="text/css">
	.st0{fill:#6FD0A5;}
	.st1{fill:#005677;}
	.st2{fill:#003A5D;}
	.st3{fill:#D3D655;}
	.st4{fill:#FFFFFF;}
</style>
<g>
	<g>
		<g>
			<circle class="st2" cx="60.5" cy="60.5" r="60.5"/>
		</g>
		<g>
			<g>
				<path class="st4" d="M60.5,20C82.83,20,101,38.17,101,60.5S82.83,101,60.5,101S20,82.83,20,60.5S38.17,20,60.5,20 M60.5,19
					C37.58,19,19,37.58,19,60.5S37.58,102,60.5,102S102,83.42,102,60.5S83.42,19,60.5,19L60.5,19z"/>
			</g>
		</g>
	</g>
	<g>
		<polygon class="st4" points="79.25,79.97 75.53,79.97 75.53,60.29 60.5,72.66 45.47,60.29 45.47,79.97 41.75,79.97 41.75,52.42 
			60.5,67.84 79.25,52.42 		"/>
		<polygon class="st4" points="60.5,58.76 42.43,43.89 44.79,41.03 60.5,53.95 76.2,41.03 78.57,43.89 		"/>
	</g>
</g>
</svg>
