<?xml version="1.0" encoding="utf-8"?>
<!-- Generator: Adobe Illustrator 25.4.1, SVG Export Plug-In . SVG Version: 6.00 Build 0)  -->
<svg version="1.1" xmlns="http://www.w3.org/2000/svg" xmlns:xlink="http://www.w3.org/1999/xlink" x="0px" y="0px"
	 viewBox="0 0 864 864" style="enable-background:new 0 0 864 864;" xml:space="preserve">
<style type="text/css">
	.st0{opacity:0.2;}
	.st1{clip-path:url(#SVGID_00000121967955385690451130000010717485790415003302_);fill:#D1D16A;}
	.st2{clip-path:url(#SVGID_00000066514858181779608470000006633758398953366451_);fill:#D1D16A;}
	.st3{fill:#818144;}
	.st4{fill:#AEAA56;}
	.st5{fill:#FFFFFF;}
	.st6{fill:#FFFFFF;stroke:#003A5D;stroke-miterlimit:10;}
	.st7{opacity:0.3;}
	.st8{clip-path:url(#SVGID_00000039846626880442356410000011464553315554171566_);fill:#1C5A7D;}
	.st9{opacity:0.7;}
	.st10{clip-path:url(#SVGID_00000168092980149426684930000017306744678545535929_);fill:#1C5A7D;}
	.st11{fill:#D1D16A;}
	.st12{fill:#003A5D;}
	
		.st13{clip-path:url(#SVGID_00000151529903889933543950000018228115849329409927_);fill:#FFFFFF;stroke:#003A5D;stroke-miterlimit:10;}
	.st14{clip-path:url(#SVGID_00000151529903889933543950000018228115849329409927_);fill:#AEAA56;}
	
		.st15{clip-path:url(#SVGID_00000151529903889933543950000018228115849329409927_);fill:#FFFFFF;stroke:#6FD0A5;stroke-miterlimit:10;}
	.st16{clip-path:url(#SVGID_00000151529903889933543950000018228115849329409927_);}
	.st17{clip-path:url(#SVGID_00000151529903889933543950000018228115849329409927_);fill:none;stroke:#003A5D;stroke-miterlimit:10;}
	.st18{clip-path:url(#SVGID_00000151529903889933543950000018228115849329409927_);fill:#FFFFFF;}
	
		.st19{clip-path:url(#SVGID_00000030465084221980344640000012632814056611376559_);fill:#FFFFFF;stroke:#003A5D;stroke-miterlimit:10;}
	.st20{clip-path:url(#SVGID_00000030465084221980344640000012632814056611376559_);fill:#AEAA56;}
	
		.st21{clip-path:url(#SVGID_00000030465084221980344640000012632814056611376559_);fill:#FFFFFF;stroke:#6FD0A5;stroke-miterlimit:10;}
	.st22{clip-path:url(#SVGID_00000030465084221980344640000012632814056611376559_);}
	.st23{clip-path:url(#SVGID_00000030465084221980344640000012632814056611376559_);fill:none;stroke:#003A5D;stroke-miterlimit:10;}
	.st24{clip-path:url(#SVGID_00000030465084221980344640000012632814056611376559_);fill:#FFFFFF;}
	
		.st25{clip-path:url(#SVGID_00000178905109582638386520000005951342182784289705_);fill:#FFFFFF;stroke:#003A5D;stroke-miterlimit:10;}
	.st26{clip-path:url(#SVGID_00000178905109582638386520000005951342182784289705_);}
	.st27{font-family:'Gotham-Book';}
	.st28{font-size:14.0352px;}
	.st29{font-family:'Gotham-Bold';}
	.st30{font-size:10.1106px;}
	.st31{font-size:11.555px;}
	.st32{clip-path:url(#SVGID_00000178905109582638386520000005951342182784289705_);fill:#6FD0A5;}
	
		.st33{clip-path:url(#SVGID_00000178905109582638386520000005951342182784289705_);fill:#FFFFFF;stroke:#6FD0A5;stroke-miterlimit:10;}
	.st34{clip-path:url(#SVGID_00000178905109582638386520000005951342182784289705_);fill:none;stroke:#003A5D;stroke-miterlimit:10;}
	.st35{letter-spacing:-1;}
	.st36{display:none;}
	.st37{display:inline;fill:none;stroke:#6FD0A5;stroke-width:10;stroke-miterlimit:10;}
	.st38{display:inline;fill:none;stroke:#6FD0A5;stroke-width:8;stroke-miterlimit:10;}
	.st39{display:inline;fill:none;stroke:#000000;stroke-width:3;stroke-miterlimit:10;}
</style>
<g id="Layer_1">
	<g>
		<defs>
			<rect id="SVGID_00000023265050573912837630000007573500004034088578_" width="864" height="864"/>
		</defs>
		<clipPath id="SVGID_00000139267742843452149520000002560064023554375575_">
			<use xlink:href="#SVGID_00000023265050573912837630000007573500004034088578_"  style="overflow:visible;"/>
		</clipPath>
		
			<polygon style="clip-path:url(#SVGID_00000139267742843452149520000002560064023554375575_);fill:#FFFFFF;stroke:#003A5D;stroke-miterlimit:10;" points="
			530.39,781.88 509.53,707.3 491.76,619.27 491.77,618.99 495.67,509.54 500.44,509.71 496.55,618.88 514.2,706.27 534.99,780.6 		
			"/>
		<g style="clip-path:url(#SVGID_00000139267742843452149520000002560064023554375575_);">
			<text transform="matrix(1 0 0 1 713.8145 488.6133)"><tspan x="0" y="0" class="st12 st27 st28">El Cazi</tspan><tspan x="47.28" y="0" class="st12 st27 st28">t</tspan><tspan x="52.76" y="0" class="st12 st27 st28">o</tspan><tspan x="0" y="16.84" class="st12 st27 st28">de Michoacán</tspan></text>
		</g>
		<g style="clip-path:url(#SVGID_00000139267742843452149520000002560064023554375575_);">
			<text transform="matrix(0.993 -0.1183 0.1183 0.993 318.6163 213.5475)"><tspan x="0" y="0" class="st12 st29 st30">P</tspan><tspan x="6.71" y="0" class="st12 st29 st30">eri</tspan><tspan x="20.19" y="0" class="st12 st29 st30">f</tspan><tspan x="23.96" y="0" class="st12 st29 st30">éri</tspan><tspan x="37.44" y="0" class="st12 st29 st30">c</tspan><tspan x="43.11" y="0" class="st12 st29 st30">o de Mérida</tspan></text>
		</g>
		<g style="clip-path:url(#SVGID_00000139267742843452149520000002560064023554375575_);">
			<text transform="matrix(1 0 0 1 558.7344 224.7456)"><tspan x="0" y="0" class="st12 st27 st31">T</tspan><tspan x="7.31" y="0" class="st12 st27 st31">he Harbor</tspan></text>
		</g>
		<g style="clip-path:url(#SVGID_00000139267742843452149520000002560064023554375575_);">
			<text transform="matrix(1 0 0 1 540.4648 256.8462)"><tspan x="0" y="0" class="st12 st27 st31">· </tspan><tspan x="6.3" y="0" class="st12 st27 st31">G</tspan><tspan x="15.47" y="0" class="st12 st27 st31">alerías Mérida</tspan></text>
		</g>
		<g style="clip-path:url(#SVGID_00000139267742843452149520000002560064023554375575_);">
			<text transform="matrix(1 0 0 1 575.002 269.3604)"><tspan x="0" y="0" class="st12 st27 st31">· Li</tspan><tspan x="16.49" y="0" class="st12 st27 st31">v</tspan><tspan x="22.94" y="0" class="st12 st27 st31">erpool</tspan></text>
		</g>
		<g style="clip-path:url(#SVGID_00000139267742843452149520000002560064023554375575_);">
			<text transform="matrix(1 0 0 1 588.8906 281.8735)"><tspan x="0" y="0" class="st12 st27 st31">· </tspan><tspan x="6.3" y="0" class="st12 st27 st31">C</tspan><tspan x="14.72" y="0" class="st12 st27 st31">o</tspan><tspan x="22.19" y="0" class="st12 st27 st31">s</tspan><tspan x="27.84" y="0" class="st12 st27 st31">t</tspan><tspan x="32.34" y="0" class="st12 st27 st31">c</tspan><tspan x="38.77" y="0" class="st12 st27 st31">o</tspan></text>
		</g>
		<g style="clip-path:url(#SVGID_00000139267742843452149520000002560064023554375575_);">
			<text transform="matrix(1 0 0 1 572.3926 308.4893)"><tspan x="0" y="0" class="st12 st27 st31">G</tspan><tspan x="9.06" y="0" class="st12 st27 st31">r</tspan><tspan x="13.46" y="0" class="st12 st27 st31">an Museo</tspan></text>
		</g>
		<g style="clip-path:url(#SVGID_00000139267742843452149520000002560064023554375575_);">
			<text transform="matrix(1 0 0 1 546.7178 321.0005)"><tspan x="0" y="0" class="st12 st27 st31">del Mundo M</tspan><tspan x="73.92" y="0" class="st12 st27 st31">a</tspan><tspan x="80.38" y="0" class="st12 st27 st31">y</tspan><tspan x="86.93" y="0" class="st12 st27 st31">a</tspan></text>
		</g>
		<g style="clip-path:url(#SVGID_00000139267742843452149520000002560064023554375575_);">
			<text transform="matrix(1 0 0 1 567.7354 357.7607)" class="st12 st27 st31">Siglo XXI</text>
		</g>
		<path style="clip-path:url(#SVGID_00000139267742843452149520000002560064023554375575_);fill:#6FD0A5;" d="M639.08,216.33
			c0-2.24-1.81-4.05-4.05-4.05c-2.23,0-4.05,1.81-4.05,4.05c0,0.76,0.21,1.46,0.57,2.07h-0.01l0.04,0.06
			c0.1,0.16,0.21,0.32,0.33,0.46l3.11,4.37l3.11-4.37c0.12-0.15,0.23-0.31,0.33-0.47l0.04-0.05h-0.01
			C638.86,217.79,639.08,217.09,639.08,216.33z M635.03,218.14c-1.15,0-2.09-0.93-2.09-2.09c0-1.15,0.93-2.08,2.09-2.08
			c1.15,0,2.08,0.93,2.08,2.08C637.11,217.21,636.18,218.14,635.03,218.14z"/>
		<path style="clip-path:url(#SVGID_00000139267742843452149520000002560064023554375575_);fill:#6FD0A5;" d="M650.28,252.33
			c0-2.24-1.81-4.05-4.05-4.05c-2.23,0-4.05,1.81-4.05,4.05c0,0.76,0.21,1.46,0.57,2.07h-0.01l0.04,0.06
			c0.1,0.16,0.21,0.32,0.33,0.46l3.11,4.37l3.11-4.37c0.12-0.15,0.23-0.31,0.33-0.47l0.04-0.05h-0.01
			C650.06,253.79,650.28,253.09,650.28,252.33z M646.23,254.14c-1.15,0-2.09-0.93-2.09-2.09c0-1.15,0.93-2.08,2.09-2.08
			c1.15,0,2.08,0.93,2.08,2.08C648.31,253.21,647.38,254.14,646.23,254.14z"/>
		<path style="clip-path:url(#SVGID_00000139267742843452149520000002560064023554375575_);fill:#6FD0A5;" d="M654.28,304.33
			c0-2.24-1.81-4.05-4.05-4.05c-2.23,0-4.05,1.81-4.05,4.05c0,0.76,0.21,1.46,0.57,2.07h-0.01l0.04,0.06
			c0.1,0.16,0.21,0.32,0.33,0.46l3.11,4.37l3.11-4.37c0.12-0.15,0.23-0.31,0.33-0.47l0.04-0.05h-0.01
			C654.06,305.79,654.28,305.09,654.28,304.33z M650.23,306.14c-1.15,0-2.09-0.93-2.09-2.09s0.93-2.08,2.09-2.08
			c1.15,0,2.08,0.93,2.08,2.08S651.38,306.14,650.23,306.14z"/>
		<path style="clip-path:url(#SVGID_00000139267742843452149520000002560064023554375575_);fill:#6FD0A5;" d="M635.08,350.73
			c0-2.24-1.81-4.05-4.05-4.05c-2.23,0-4.05,1.81-4.05,4.05c0,0.76,0.21,1.46,0.57,2.07h-0.01l0.04,0.06
			c0.1,0.16,0.21,0.32,0.33,0.46l3.11,4.37l3.11-4.37c0.12-0.15,0.23-0.31,0.33-0.47l0.04-0.05h-0.01
			C634.86,352.19,635.08,351.49,635.08,350.73z M631.03,352.54c-1.15,0-2.09-0.93-2.09-2.09s0.93-2.08,2.09-2.08
			c1.15,0,2.08,0.93,2.08,2.08S632.18,352.54,631.03,352.54z"/>
		<path style="clip-path:url(#SVGID_00000139267742843452149520000002560064023554375575_);fill:#6FD0A5;" d="M723.08,389.93
			c0-2.24-1.81-4.05-4.05-4.05c-2.23,0-4.05,1.81-4.05,4.05c0,0.76,0.21,1.46,0.57,2.07h-0.01l0.04,0.06
			c0.1,0.16,0.21,0.32,0.33,0.46l3.11,4.37l3.11-4.37c0.12-0.15,0.23-0.3,0.33-0.47l0.04-0.05h-0.01
			C722.86,391.39,723.08,390.69,723.08,389.93z M719.03,391.74c-1.15,0-2.09-0.93-2.09-2.09c0-1.15,0.93-2.08,2.09-2.08
			c1.15,0,2.08,0.93,2.08,2.08C721.11,390.81,720.18,391.74,719.03,391.74z"/>
		<path style="clip-path:url(#SVGID_00000139267742843452149520000002560064023554375575_);fill:#6FD0A5;" d="M441.48,553.13
			c0-2.24-1.81-4.05-4.05-4.05c-2.23,0-4.05,1.81-4.05,4.05c0,0.76,0.21,1.46,0.57,2.07h-0.01l0.04,0.06
			c0.1,0.16,0.21,0.32,0.33,0.46l3.11,4.37l3.11-4.37c0.12-0.15,0.23-0.3,0.33-0.47l0.04-0.05h-0.01
			C441.26,554.59,441.48,553.89,441.48,553.13z M437.43,554.94c-1.15,0-2.09-0.93-2.09-2.09c0-1.15,0.93-2.08,2.09-2.08
			c1.15,0,2.08,0.93,2.08,2.08C439.51,554.01,438.58,554.94,437.43,554.94z"/>
		<path style="clip-path:url(#SVGID_00000139267742843452149520000002560064023554375575_);fill:#6FD0A5;" d="M433.48,581.13
			c0-2.24-1.81-4.05-4.05-4.05c-2.23,0-4.05,1.81-4.05,4.05c0,0.76,0.21,1.46,0.57,2.07h-0.01l0.04,0.06
			c0.1,0.16,0.21,0.32,0.33,0.46l3.11,4.37l3.11-4.37c0.12-0.15,0.23-0.3,0.33-0.47l0.04-0.05h-0.01
			C433.26,582.59,433.48,581.89,433.48,581.13z M429.43,582.94c-1.15,0-2.09-0.93-2.09-2.09c0-1.15,0.93-2.08,2.09-2.08
			c1.15,0,2.08,0.93,2.08,2.08C431.51,582.01,430.58,582.94,429.43,582.94z"/>
		<path style="clip-path:url(#SVGID_00000139267742843452149520000002560064023554375575_);fill:#6FD0A5;" d="M483.08,594.73
			c0-2.24-1.81-4.05-4.05-4.05c-2.23,0-4.05,1.81-4.05,4.05c0,0.76,0.21,1.46,0.57,2.07h-0.01l0.04,0.06
			c0.1,0.16,0.21,0.32,0.33,0.46l3.11,4.37l3.11-4.37c0.12-0.15,0.23-0.31,0.33-0.47l0.04-0.05h-0.01
			C482.86,596.19,483.08,595.49,483.08,594.73z M479.03,596.54c-1.15,0-2.09-0.93-2.09-2.09c0-1.15,0.93-2.08,2.09-2.08
			c1.15,0,2.08,0.93,2.08,2.08C481.11,595.61,480.18,596.54,479.03,596.54z"/>
		<path style="clip-path:url(#SVGID_00000139267742843452149520000002560064023554375575_);fill:#6FD0A5;" d="M531.08,648.33
			c0-2.24-1.81-4.05-4.05-4.05c-2.23,0-4.05,1.81-4.05,4.05c0,0.76,0.21,1.46,0.57,2.07h-0.01l0.04,0.06
			c0.1,0.16,0.21,0.32,0.33,0.46l3.11,4.37l3.11-4.37c0.12-0.15,0.23-0.3,0.33-0.47l0.04-0.05h-0.01
			C530.86,649.79,531.08,649.09,531.08,648.33z M527.03,650.14c-1.15,0-2.09-0.93-2.09-2.09c0-1.15,0.93-2.08,2.09-2.08
			c1.15,0,2.08,0.93,2.08,2.08C529.11,649.21,528.18,650.14,527.03,650.14z"/>
		<path style="clip-path:url(#SVGID_00000139267742843452149520000002560064023554375575_);fill:#6FD0A5;" d="M715.08,670.73
			c0-2.24-1.81-4.05-4.05-4.05c-2.23,0-4.05,1.81-4.05,4.05c0,0.76,0.21,1.46,0.57,2.07h-0.01l0.04,0.06
			c0.1,0.16,0.21,0.32,0.33,0.46l3.11,4.37l3.11-4.37c0.12-0.15,0.23-0.31,0.33-0.47l0.04-0.05h-0.01
			C714.86,672.19,715.08,671.49,715.08,670.73z M711.03,672.54c-1.15,0-2.09-0.93-2.09-2.09c0-1.15,0.93-2.08,2.09-2.08
			c1.15,0,2.08,0.93,2.08,2.08C713.11,671.61,712.18,672.54,711.03,672.54z"/>
		<path style="clip-path:url(#SVGID_00000139267742843452149520000002560064023554375575_);fill:#6FD0A5;" d="M745.48,605.13
			c0-2.24-1.81-4.05-4.05-4.05c-2.23,0-4.05,1.81-4.05,4.05c0,0.76,0.21,1.46,0.57,2.07h-0.01l0.04,0.06
			c0.1,0.16,0.21,0.32,0.33,0.46l3.11,4.37l3.11-4.37c0.12-0.15,0.23-0.3,0.33-0.47l0.04-0.05h-0.01
			C745.26,606.59,745.48,605.89,745.48,605.13z M741.43,606.94c-1.15,0-2.09-0.93-2.09-2.09c0-1.15,0.93-2.08,2.09-2.08
			c1.15,0,2.08,0.93,2.08,2.08C743.51,606.01,742.58,606.94,741.43,606.94z"/>
		<path style="clip-path:url(#SVGID_00000139267742843452149520000002560064023554375575_);fill:#6FD0A5;" d="M733.48,520.33
			c0-2.24-1.81-4.05-4.05-4.05c-2.23,0-4.05,1.81-4.05,4.05c0,0.76,0.21,1.46,0.57,2.07h-0.01l0.04,0.06
			c0.1,0.16,0.21,0.32,0.33,0.46l3.11,4.37l3.11-4.37c0.12-0.15,0.23-0.3,0.33-0.47l0.04-0.05h-0.01
			C733.26,521.79,733.48,521.09,733.48,520.33z M729.43,522.14c-1.15,0-2.09-0.93-2.09-2.09c0-1.15,0.93-2.08,2.09-2.08
			c1.15,0,2.08,0.93,2.08,2.08C731.51,521.21,730.58,522.14,729.43,522.14z"/>
		<g style="clip-path:url(#SVGID_00000139267742843452149520000002560064023554375575_);">
			<text transform="matrix(0.1528 0.9883 -0.9883 0.1528 672.9543 240.6737)"><tspan x="0" y="0" class="st12 st29 st30">Calle 60 Nor</tspan><tspan x="64.82" y="0" class="st12 st29 st30">t</tspan><tspan x="68.92" y="0" class="st12 st29 st30">e</tspan></text>
		</g>
		
			<path style="clip-path:url(#SVGID_00000139267742843452149520000002560064023554375575_);fill:#FFFFFF;stroke:#6FD0A5;stroke-miterlimit:10;" d="
			M329.27,494.94c0.14-1.24,1.22-2.15,2.46-2.08c10.43,0.57,52.27,2.42,56.85,2.5c0.28,0,0.55,0.02,0.83,0.04l319.29,34.63
			c1.05,0.11,1.9,0.92,2.07,1.97l0.18,1.12c0.24,1.53-1.04,2.86-2.57,2.7l-319.81-34.9c-0.05-0.01-0.1-0.01-0.15-0.01l-51.75-2.3
			c-1.23-0.05-2.3,0.86-2.44,2.08l-6.01,53.33c-0.01,0.06-0.01,0.12-0.01,0.19l-3.76,113.69c-0.04,1.13-0.87,2.07-1.98,2.24
			l-11.42,1.77c-1.42,0.22-2.71-0.88-2.71-2.32l0,0c0-1.11,0.78-2.07,1.87-2.3l6.94-1.44c1.06-0.22,1.83-1.14,1.87-2.22l3.64-109.96
			c0-0.06,0.01-0.12,0.01-0.19L329.27,494.94z"/>
		
			<path style="clip-path:url(#SVGID_00000139267742843452149520000002560064023554375575_);fill:#FFFFFF;stroke:#003A5D;stroke-miterlimit:10;" d="
			M11.6,286l130.76-62.92l0.09-0.01l468.09-57.74c1.33-0.16,2.61,0.75,2.77,2.09c0.18,1.45-1.05,2.04-1.45,3.23
			c-0.32,0.95-0.36,2-0.39,3c-0.09,3.12-0.18,6.33,0.62,9.37c0.62,2.36,1.52,6.33,3.18,8.15c1.85,2.03,5.7,4.24,8.39,4.83
			c2.53,0.55,5.1,0.39,7.64,0.17c2.84-0.24,5.62,0.64,8.27,1.54c4.21,1.44,8.43,2.99,12.15,5.44c0.38,0.25,0.77,0.52,0.99,0.92
			c0.18,0.32,0.24,0.7,0.3,1.06c1.05,6.77,2.18,13.54,3.28,20.3c1.38,8.47,2.76,16.93,4.13,25.4c1.7,10.45,3.4,20.9,5.1,31.35
			c1.86,11.44,3.72,22.88,5.58,34.32c1.86,11.44,3.72,22.89,5.59,34.33c1.7,10.46,3.4,20.91,5.1,31.37
			c1.38,8.48,2.76,16.96,4.14,25.44c0.9,5.51,1.79,11.02,2.69,16.53c0.04,0.25,0.66,4.84,0.78,4.84l16.2,101.3l0.92,5.85
			l16.9,107.37l-0.38-0.04l-176.36-16.87L377.51,610.2l-51.34-5.4l-5.81-0.61l-49.86-5.24c-4.7-0.49-9.43-0.5-14.13-0.03
			l-85.68,8.69c-9.64,0.98-19.38,0.43-28.86-1.61l-24.29-5.24c-0.1-0.02-0.2-0.05-0.3-0.09l-11.89-4.33
			c-4.65-1.69-8.73-4.65-11.78-8.54l-15.99-20.37l-39.02-50.18c-4.26-5.48-5.89-12.57-4.43-19.37l22.4-104.76
			c0.02-0.11,0.05-0.21,0.09-0.32l36.68-99.78c0.44-1.2-0.17-2.53-1.38-2.98l-0.74-0.27c-1.2-0.44-2.53,0.17-2.98,1.38l-36.74,99.97
			c-0.04,0.1-0.07,0.21-0.09,0.31L28.3,499.21c-1.45,6.8,0.17,13.89,4.43,19.37l40.58,52.19l18.54,23.62
			c2.01,2.56,4.7,4.51,7.76,5.63l15.92,5.8c0.1,0.04,0.2,0.07,0.3,0.09l29.09,6.3c6.63,1.44,13.45,1.83,20.21,1.17l95.98-9.4
			c1.54,0.01,3.06,0.01,4.6,0.02l54.78,5.74l5.8,0.61l50.66,5.33l169.2,16.42l178.16,17.04l0.04,0.23l41.33,281.75
			c0.19,1.28,1.38,2.15,2.66,1.95l3.59-0.57c1.26-0.2,2.13-1.38,1.93-2.65l-0.28-1.82c-0.27-1.77-0.55-3.54-0.82-5.3
			c-0.44-2.86-0.89-5.72-1.33-8.57c-0.6-3.88-1.2-7.75-1.8-11.63c-0.75-4.82-1.5-9.65-2.24-14.47c-0.88-5.7-1.77-11.39-2.65-17.09
			c-1.01-6.5-2.02-13-3.03-19.5c-1.12-7.23-2.24-14.46-3.37-21.69c-1.22-7.89-2.45-15.78-3.67-23.67
			c-1.32-8.48-2.63-16.95-3.95-25.43c-1.4-8.99-2.79-17.98-4.19-26.97c-1.46-9.43-2.93-18.87-4.39-28.3
			c-1.52-9.81-3.04-19.61-4.56-29.42c-1.57-10.1-3.14-20.21-4.7-30.31c-1.6-10.33-3.21-20.66-4.81-31
			c-1.63-10.49-3.25-20.98-4.88-31.46c-1.64-10.57-3.28-21.14-4.92-31.71c-1.64-10.58-3.28-21.17-4.93-31.75
			c-1.63-10.52-3.27-21.05-4.9-31.57c-1.61-10.39-3.22-20.78-4.84-31.17c-1.58-10.19-3.16-20.37-4.74-30.56
			c-1.54-9.91-3.08-19.82-4.61-29.73c-1.48-9.56-2.97-19.13-4.45-28.69c-1.42-9.14-2.84-18.29-4.26-27.43
			c-1.34-8.65-2.68-17.3-4.03-25.96c-1.26-8.09-2.51-16.18-3.77-24.27c-1.16-7.45-2.31-14.91-3.47-22.36
			c-1.05-6.75-2.09-13.49-3.14-20.24c-0.93-5.97-1.85-11.93-2.78-17.9c-0.79-5.12-1.59-10.23-2.38-15.35
			c-0.65-4.19-1.3-8.39-1.95-12.58c-0.5-3.2-0.99-6.4-1.49-9.6c-0.33-2.13-0.66-4.26-0.99-6.4c-0.12-0.75-0.66-2.23-0.46-2.98
			c0.28-1.08,2.58-2.56,3.48-3.3c6.46-5.32,13.87-9.31,21.39-12.92c3.78-1.81,7.6-3.53,11.4-5.29c4.8-2.22,8.15-3.97,9.25-10.7
			c0.22-1.37,0.29-2.77,0.27-4.16c-0.04-2.75-0.12-5.05-1.64-7.21c-0.42-0.6-0.94-1.22-1.43-1.86c-1.19-1.57-0.25-3.82,1.71-4.08
			c2.43-0.32,4.96-0.45,7.31-0.75c8.44-1.04,16.88-2.08,25.32-3.12c10.39-1.28,20.78-2.56,31.17-3.85
			c9.29-1.15,18.59-2.29,27.88-3.44c5.15-0.63,10.29-1.27,15.44-1.9l0.85-0.1c0.09-0.01,0.19-0.02,0.28-0.02l16.83-0.01l0.09,0.02
			l35.81,7.3c0.19,0.04,0.37,0.1,0.54,0.18l14.7,7.04c0.04,0.02,0.09,0.04,0.13,0.07l108.61,60.8c1.12,0.63,2.53,0.23,3.16-0.89
			l1.8-3.22c0.63-1.12,0.23-2.53-0.89-3.16l-108.62-60.81c-0.04-0.02-0.08-0.05-0.13-0.07l-16.14-7.75
			c-0.17-0.08-0.35-0.14-0.54-0.18l-37.35-7.59c-0.15-0.03-0.31-0.05-0.46-0.05l-18.03-0.02c-0.1,0-0.19,0.01-0.29,0.02
			l-143.06,17.66c-0.42,0.05-0.86-0.01-1.24-0.19l-9.34-4.25c-0.08-0.04-0.16-0.08-0.23-0.12l-7.29-4.39
			c-0.59-0.35-0.99-0.95-1.1-1.62l-29.31-185.1c-0.2-1.27-1.4-2.13-2.66-1.93l-3.63,0.59c-1.26,0.21-2.12,1.39-1.92,2.65
			l26.54,167.96c0.34,2.13-2.16,3.53-3.8,2.12l-0.32-0.28c-1.17-1-2.66-2.85-4.13-3.3c-0.42-0.13-0.86-0.13-1.3-0.13
			c-2.5,0-5.01-0.01-7.51-0.01c-4.09-0.01-9.01,3.3-10.88,6.8c-0.82,1.55-1.65,3.09-2.47,4.64c-0.23,0.44-0.47,0.89-0.53,1.38
			c-0.05,0.43,0.04,0.85,0.13,1.27c0.96,4.27,2.73,8.34,5.17,11.97c1.19,1.77,2.55,3.64,4.15,5.07c0.37,0.34,0.79,0.65,1.23,0.94
			c1.06,0.71,0.68,2.35-0.59,2.48c-1.96,0.21-4.07,0.23-5.63,0.42c-3.99,0.49-7.98,0.98-11.97,1.48
			c-5.48,0.68-10.97,1.35-16.45,2.03c-6.8,0.84-13.6,1.68-20.4,2.52c-7.93,0.98-15.87,1.96-23.8,2.94
			c-8.89,1.1-17.77,2.19-26.66,3.29c-9.66,1.19-19.31,2.38-28.97,3.57c-10.25,1.26-20.5,2.53-30.74,3.79
			c-10.66,1.31-21.32,2.63-31.97,3.94c-10.89,1.34-21.77,2.69-32.66,4.03c-10.93,1.35-21.87,2.7-32.8,4.05
			c-10.8,1.33-21.6,2.66-32.4,4c-10.49,1.29-20.97,2.59-31.46,3.88c-9.99,1.23-19.98,2.46-29.97,3.7
			c-9.31,1.15-18.63,2.3-27.94,3.45c-8.46,1.04-16.91,2.09-25.37,3.13c-7.42,0.92-14.84,1.83-22.25,2.75
			c-6.2,0.76-12.4,1.53-18.59,2.29c-4.8,0.59-9.59,1.18-14.39,1.78c-3.22,0.4-6.43,0.79-9.65,1.19c-1.45,0.18-2.91,0.36-4.36,0.54
			c-0.07,0.01-0.13,0.02-0.2,0.02c-0.1,0.01-0.19,0.04-0.28,0.08L8.39,277.8 M387.4,501.33 M621.95,147.05
			c-2.96-2.71-4.94-7.03-5.94-10.84c-0.08-0.31-0.16-0.63-0.13-0.96c0.03-0.42,0.24-0.8,0.44-1.17c0.4-0.73,0.8-1.46,1.19-2.2
			c0.92-1.7,3.54-3.11,5.39-3.47c0.62-0.12,1.26-0.12,1.9-0.12c0.97,0,1.94,0.01,2.91,0.01c0.46,0,0.93,0,1.36,0.16
			c1.28,0.45,2.56,2.01,3.59,2.89c1.48,1.27,2.96,2.53,4.44,3.8c1.91,1.64,5.1,3.33,5.51,5.98c0.3,1.88,3.16,10.32,1.32,11.53
			c-0.3,0.2-0.68,0.25-1.04,0.29c-1.74,0.21-3.48,0.42-5.22,0.63c-1.58,0.19-3.29,0.75-4.85,0.2c-3.51-1.25-6.78-4.08-9.94-6.03
			C622.55,147.56,622.24,147.32,621.95,147.05z M639.53,186.28c-0.48,0.51-1.02,0.98-1.63,1.38c-3.15,2.06-8.24,2.34-11.87,1.71
			c-1.9-0.33-3.77-1.15-5.03-2.61c-2-2.31-2.77-6.34-2.95-9.3c-0.21-3.55,1.21-6.33,3.31-9.06c1.27-1.65,2.37-3.75,4.31-4.69
			c2.38-1.16,5.94-0.98,8.57-1.3c3.3-0.41,6.6-0.81,9.9-1.22c0.33-0.04,0.67-0.08,0.99,0.02c1.38,0.42,1.34,3.7,1.61,4.9
			c0.43,1.9,1.14,4.01,0.8,5.97c-0.56,3.26-2.65,6-4.37,8.72C641.99,182.65,641.03,184.68,639.53,186.28z M648.84,193.89l-3.64-1.07
			c-0.6-0.18-0.88-0.87-0.56-1.41l3.42-5.95c0.45-0.79,1.64-0.57,1.79,0.33l1.23,7.53c0.13,0.8-0.72,1.39-1.42,1l-0.61-0.34
			C648.97,193.94,648.91,193.91,648.84,193.89z M652.59,150.82L652.59,150.82c-0.13-0.81,0.75-1.4,1.45-0.98l0,0
			c0.79,0.47,0.53,1.67-0.38,1.79l0,0C653.14,151.69,652.67,151.33,652.59,150.82z M664.06,191.57l-2.97,2.46
			c-0.57,0.48-1.45,0.15-1.57-0.59l-1.42-8.72c-0.14-0.85,0.82-1.44,1.52-0.94l6.4,4.61c0.11,0.08,0.24,0.13,0.37,0.14l0,0
			c0.76,0.09,0.96,1.09,0.31,1.47l-2.5,1.46C664.15,191.51,664.11,191.54,664.06,191.57z M699.87,170.18
			c-0.24,1.24-0.71,2.38-1.63,3.22c-0.57,0.52-1.27,0.87-1.96,1.22c-3.54,1.77-7.16,3.44-10.65,5.32c-2.92,1.58-6.15,3.5-9.63,3.07
			c-1.81-0.22-3.63-0.45-5.44-0.67c-0.61-0.08-1.23-0.15-1.81-0.37c-0.7-0.26-1.31-0.72-1.91-1.16c-2.06-1.53-4.47-2.95-6.22-4.82
			c-1.59-1.7-2.59-3.88-3.98-5.74c-0.39-0.52-0.78-1.05-1.03-1.65c-0.22-0.55-0.32-1.14-0.41-1.72c-0.22-1.4-2.28-6.79-0.09-7.05
			c6.74-0.83,13.48-1.66,20.22-2.49c3.37-0.42,6.74-0.83,10.11-1.25c1.69-0.21,3.37-0.42,5.06-0.62c1.14-0.14,4.21-0.19,4.21-0.19
			s3.07,4.53,4.01,6.09c0.4,0.66,0.8,1.32,1.05,2.06c0.37,1.1,0.37,2.29,0.36,3.45C700.11,167.94,700.08,169.1,699.87,170.18z"/>
		<g style="clip-path:url(#SVGID_00000139267742843452149520000002560064023554375575_);">
			<text transform="matrix(0.9959 0.0901 -0.0901 0.9959 373.7738 483.6734)" class="st12 st29 st30">Calle 17</text>
		</g>
		<g style="clip-path:url(#SVGID_00000139267742843452149520000002560064023554375575_);">
			<text transform="matrix(0.0991 -0.9951 0.9951 0.0991 313.5382 560.3002)" class="st12 st29 st30">Calle 26</text>
		</g>
		<g style="clip-path:url(#SVGID_00000139267742843452149520000002560064023554375575_);">
			<text transform="matrix(0.9959 0.0901 -0.0901 0.9959 630.5755 509.2748)" class="st12 st29 st30">Calle 17</text>
		</g>
		<g style="clip-path:url(#SVGID_00000139267742843452149520000002560064023554375575_);">
			<text transform="matrix(1 0 0 1 701.6289 360.1562)"><tspan x="0" y="0" class="st12 st27 st28">G</tspan><tspan x="11" y="0" class="st12 st27 st28">r</tspan><tspan x="16.34" y="0" class="st12 st27 st28">an</tspan></text>
		</g>
		<g style="clip-path:url(#SVGID_00000139267742843452149520000002560064023554375575_);">
			<text transform="matrix(1 0 0 1 699.6211 375.3569)" class="st12 st27 st28">Plaza</text>
		</g>
		<g style="clip-path:url(#SVGID_00000139267742843452149520000002560064023554375575_);">
			<text transform="matrix(1 0 0 1 667.875 696.2651)"><tspan x="0" y="0" class="st12 st27 st28">C</tspan><tspan x="10.23" y="0" class="st12 st27 st28">olegio</tspan><tspan x="0" y="16.84" class="st12 st27 st28">Mérida</tspan></text>
		</g>
		<g style="clip-path:url(#SVGID_00000139267742843452149520000002560064023554375575_);">
			<text transform="matrix(1 0 0 1 536.2852 662.1772)"><tspan x="0" y="0" class="st12 st27 st28">R</tspan><tspan x="10.02" y="0" class="st12 st27 st28">egi</tspan><tspan x="31.34" y="0" class="st12 st27 st28">s</tspan><tspan x="38.2" y="0" class="st12 st27 st28">t</tspan><tspan x="43.87" y="0" class="st12 st27 st28">r</tspan><tspan x="49.26" y="0" class="st12 st27 st28">o</tspan><tspan x="0" y="16.84" class="st12 st27 st28">Civil</tspan></text>
		</g>
		<g style="clip-path:url(#SVGID_00000139267742843452149520000002560064023554375575_);">
			<text transform="matrix(1 0 0 1 500.1855 598.5425)"><tspan x="0" y="0" class="st12 st27 st28">P</tspan><tspan x="9.23" y="0" class="st12 st27 st28">ar</tspan><tspan x="23.04" y="0" class="st12 st27 st28">r</tspan><tspan x="28.43" y="0" class="st12 st27 st28">oquia</tspan></text>
		</g>
		<g style="clip-path:url(#SVGID_00000139267742843452149520000002560064023554375575_);">
			<text transform="matrix(1 0 0 1 373.8135 542.8228)"><tspan x="0" y="0" class="st12 st27 st28">IM</tspan><tspan x="16.27" y="0" class="st12 st27 st28">S</tspan><tspan x="25.11" y="0" class="st12 st27 st28">S Chuburná</tspan></text>
		</g>
		<g style="clip-path:url(#SVGID_00000139267742843452149520000002560064023554375575_);">
			<text transform="matrix(1 0 0 1 354.5996 578.5415)"><tspan x="0" y="0" class="st12 st27 st28">Me</tspan><tspan x="20.49" y="0" class="st12 st27 st28">r</tspan><tspan x="25.88" y="0" class="st12 st27 st28">cado</tspan><tspan x="0" y="16.84" class="st12 st27 st28">Chuburná</tspan></text>
		</g>
		<g style="clip-path:url(#SVGID_00000139267742843452149520000002560064023554375575_);">
			<text transform="matrix(0.9959 0.0901 -0.0901 0.9959 594.0482 623.7655)" class="st12 st29 st30">Calle 21</text>
		</g>
		<g style="clip-path:url(#SVGID_00000139267742843452149520000002560064023554375575_);">
			<text transform="matrix(0.9947 -0.103 0.103 0.9947 181.1006 622.7493)" class="st12 st29 st30">Calle 21</text>
		</g>
		<g style="clip-path:url(#SVGID_00000139267742843452149520000002560064023554375575_);">
			<text transform="matrix(0.1722 0.9851 -0.9851 0.1722 487.9449 668.0662)" class="st12 st29 st30">Calle 20</text>
		</g>
		
			<line style="clip-path:url(#SVGID_00000139267742843452149520000002560064023554375575_);fill:none;stroke:#003A5D;stroke-miterlimit:10;" x1="295.32" y1="668" x2="295.6" y2="442.8"/>
		<path style="clip-path:url(#SVGID_00000139267742843452149520000002560064023554375575_);fill:#6FD0A5;" d="M299.36,670.73
			c0-2.24-1.81-4.05-4.05-4.05c-2.23,0-4.05,1.81-4.05,4.05c0,0.76,0.21,1.46,0.57,2.07h-0.01l0.04,0.06
			c0.1,0.16,0.21,0.32,0.33,0.46l3.11,4.37l3.11-4.37c0.12-0.15,0.23-0.31,0.33-0.47l0.04-0.05h-0.01
			C299.15,672.19,299.36,671.49,299.36,670.73z M295.32,672.54c-1.15,0-2.09-0.93-2.09-2.09c0-1.15,0.93-2.08,2.09-2.08
			c1.15,0,2.08,0.93,2.08,2.08C297.4,671.61,296.47,672.54,295.32,672.54z"/>
		<path style="clip-path:url(#SVGID_00000139267742843452149520000002560064023554375575_);fill:#6FD0A5;" d="M312.16,693.13
			c0-2.24-1.81-4.05-4.05-4.05c-2.23,0-4.05,1.81-4.05,4.05c0,0.76,0.21,1.46,0.57,2.07h-0.01l0.04,0.06
			c0.1,0.16,0.21,0.32,0.33,0.46l3.11,4.37l3.11-4.37c0.12-0.15,0.23-0.3,0.33-0.47l0.04-0.05h-0.01
			C311.95,694.59,312.16,693.89,312.16,693.13z M308.12,694.94c-1.15,0-2.09-0.93-2.09-2.09c0-1.15,0.93-2.08,2.09-2.08
			c1.15,0,2.08,0.93,2.08,2.08C310.2,694.01,309.27,694.94,308.12,694.94z"/>
		<path style="clip-path:url(#SVGID_00000139267742843452149520000002560064023554375575_);fill:#6FD0A5;" d="M222.56,581.13
			c0-2.24-1.81-4.05-4.05-4.05c-2.23,0-4.05,1.81-4.05,4.05c0,0.76,0.21,1.46,0.57,2.07h-0.01l0.04,0.06
			c0.1,0.16,0.21,0.32,0.33,0.46l3.11,4.37l3.11-4.37c0.12-0.15,0.23-0.3,0.33-0.47l0.04-0.05h-0.01
			C222.35,582.59,222.56,581.89,222.56,581.13z M218.52,582.94c-1.15,0-2.09-0.93-2.09-2.09c0-1.15,0.93-2.08,2.09-2.08
			c1.15,0,2.08,0.93,2.08,2.08C220.6,582.01,219.67,582.94,218.52,582.94z"/>
		<path style="clip-path:url(#SVGID_00000139267742843452149520000002560064023554375575_);fill:#6FD0A5;" d="M110.56,282.73
			c0-2.24-1.81-4.05-4.05-4.05c-2.23,0-4.05,1.81-4.05,4.05c0,0.76,0.21,1.46,0.57,2.07h-0.01l0.04,0.06
			c0.1,0.16,0.21,0.32,0.33,0.46l3.11,4.37l3.11-4.37c0.12-0.15,0.23-0.31,0.33-0.47l0.04-0.05h-0.01
			C110.35,284.19,110.56,283.49,110.56,282.73z M106.52,284.54c-1.15,0-2.09-0.93-2.09-2.09s0.93-2.08,2.09-2.08
			c1.15,0,2.08,0.93,2.08,2.08S107.67,284.54,106.52,284.54z"/>
		
			<circle style="clip-path:url(#SVGID_00000139267742843452149520000002560064023554375575_);fill:none;stroke:#003A5D;stroke-miterlimit:10;" cx="295.85" cy="397.77" r="44.9"/>
		<g style="clip-path:url(#SVGID_00000139267742843452149520000002560064023554375575_);">
			<polygon class="st12" points="315,417.66 311.2,417.66 311.2,397.56 295.85,410.19 280.5,397.56 280.5,417.66 276.7,417.66 
				276.7,389.52 295.85,405.27 315,389.52 			"/>
			<polygon class="st12" points="295.85,396 277.39,380.82 279.81,377.89 295.85,391.08 311.89,377.89 314.31,380.82 			"/>
		</g>
		<g style="clip-path:url(#SVGID_00000139267742843452149520000002560064023554375575_);">
			<text transform="matrix(1 0 0 1 271.4121 713.915)"><tspan x="0" y="0" class="st12 st27 st28">P</tspan><tspan x="9.23" y="0" class="st12 st27 st28">a</tspan><tspan x="17.36" y="0" class="st12 st27 st28">r</tspan><tspan x="22.75" y="0" class="st12 st27 st28">que </tspan><tspan x="53.23" y="0" class="st12 st27 st28">V</tspan><tspan x="63.48" y="0" class="st12 st27 st28">illas</tspan></text>
		</g>
		<g style="clip-path:url(#SVGID_00000139267742843452149520000002560064023554375575_);">
			<text transform="matrix(1 0 0 1 282.207 729.1128)" class="st12 st27 st28">Chuburná</text>
		</g>
		<g style="clip-path:url(#SVGID_00000139267742843452149520000002560064023554375575_);">
			<text transform="matrix(1 0 0 1 192.1338 540.5571)"><tspan x="0" y="0" class="st12 st27 st28">P</tspan><tspan x="9.24" y="0" class="st12 st27 st28">a</tspan><tspan x="17.36" y="0" class="st12 st27 st28">r</tspan><tspan x="22.75" y="0" class="st12 st27 st28">que</tspan></text>
		</g>
		<g style="clip-path:url(#SVGID_00000139267742843452149520000002560064023554375575_);">
			<text transform="matrix(1 0 0 1 168.2334 555.7593)"><tspan x="0" y="0" class="st12 st27 st28">San F</tspan><tspan x="39.17" y="0" class="st12 st27 st28">r</tspan><tspan x="44.52" y="0" class="st12 st27 st28">ancis</tspan><tspan x="79.98" y="0" class="st12 st27 st28">c</tspan><tspan x="87.8" y="0" class="st12 st27 st28">o</tspan></text>
		</g>
		<g style="clip-path:url(#SVGID_00000139267742843452149520000002560064023554375575_);">
			<text transform="matrix(1 0 0 1 182.6172 570.9609)" class="st12 st27 st28">Chuburná</text>
		</g>
		<g style="clip-path:url(#SVGID_00000139267742843452149520000002560064023554375575_);">
			<text transform="matrix(1 0 0 1 106.5859 304.6196)"><tspan x="0" y="0" class="st12 st27 st28">F</tspan><tspan x="9.21" y="0" class="st12 st27 st28">r</tspan><tspan x="14.54" y="0" class="st12 st27 st28">ancis</tspan><tspan x="50.01" y="0" class="st12 st27 st28">c</tspan><tspan x="57.81" y="0" class="st12 st27 st28">o</tspan></text>
		</g>
		<g style="clip-path:url(#SVGID_00000139267742843452149520000002560064023554375575_);">
			<text transform="matrix(1 0 0 1 106.5859 321.6562)"><tspan x="0" y="0" class="st12 st27 st28">de mon</tspan><tspan x="52.9" y="0" class="st12 st27 st28">t</tspan><tspan x="58.37" y="0" class="st12 st27 st28">ejo</tspan></text>
		</g>
		<g style="clip-path:url(#SVGID_00000139267742843452149520000002560064023554375575_);">
			<text transform="matrix(1 0 0 1 755.6963 601.9932)"><tspan x="0" y="0" class="st12 st27 st28 st35">T</tspan><tspan x="7.31" y="0" class="st12 st27 st28">ecnológi</tspan><tspan x="67.12" y="0" class="st12 st27 st28">c</tspan><tspan x="74.93" y="0" class="st12 st27 st28">o</tspan><tspan x="0" y="16.84" class="st12 st27 st28">de Mérida</tspan></text>
		</g>
	</g>
</g>
<g id="Mapa_nuevo" class="st36">
</g>
</svg>
